<svg width="32" height="32" viewBox="0 0 32 32" fill="none" xmlns="http://www.w3.org/2000/svg">
  <!-- Background with modern gradient -->
  <rect width="32" height="32" rx="8" fill="url(#bg-gradient)" />
  <rect width="32" height="32" rx="8" fill="url(#overlay)" opacity="0.6" />
  
  <!-- Italian flag mini accent -->
  <rect x="26" y="4" width="2" height="8" rx="0.5" fill="#009246" />
  <rect x="26" y="12" width="2" height="8" rx="0.5" fill="white" />
  <rect x="26" y="20" width="2" height="8" rx="0.5" fill="#CE2B37" />
  
  <!-- Excel grid representation -->
  <g opacity="0.9">
    <!-- Grid cells -->
    <rect x="4" y="6" width="5" height="4" rx="1" fill="white" opacity="0.95" />
    <rect x="10" y="6" width="5" height="4" rx="1" fill="white" opacity="0.75" />
    <rect x="16" y="6" width="5" height="4" rx="1" fill="white" opacity="0.95" />
    
    <rect x="4" y="11" width="5" height="4" rx="1" fill="white" opacity="0.75" />
    <rect x="10" y="11" width="5" height="4" rx="1" fill="white" opacity="0.95" />
    <rect x="16" y="11" width="5" height="4" rx="1" fill="white" opacity="0.75" />
    
    <rect x="4" y="16" width="5" height="4" rx="1" fill="white" opacity="0.95" />
    <rect x="10" y="16" width="5" height="4" rx="1" fill="white" opacity="0.75" />
    <rect x="16" y="16" width="5" height="4" rx="1" fill="white" opacity="0.95" />
  </g>
  
  <!-- Success chart line -->
  <path 
    d="M5 26 L8 23 L12 24 L16 21 L20 22" 
    stroke="white" 
    strokeWidth="2.5" 
    fill="none" 
    opacity="0.8"
    strokeLinecap="round"
    strokeLinejoin="round"
  />
  
  <!-- Growth arrow -->
  <path 
    d="M18 21 L20 22 L19 24" 
    stroke="white" 
    strokeWidth="2.5" 
    fill="none" 
    opacity="0.8"
    strokeLinecap="round"
    strokeLinejoin="round"
  />
  
  <!-- Premium indicator dot -->
  <circle cx="24" cy="26" r="2" fill="#fbbf24" />
  <circle cx="24" cy="26" r="1.2" fill="white" />
  
  <defs>
    <linearGradient id="bg-gradient" x1="0%" y1="0%" x2="100%" y2="100%">
      <stop offset="0%" stopColor="#047857" />
      <stop offset="50%" stopColor="#059669" />
      <stop offset="100%" stopColor="#065f46" />
    </linearGradient>
    <linearGradient id="overlay" x1="0%" y1="0%" x2="100%" y2="100%">
      <stop offset="0%" stopColor="white" opacity="0.1" />
      <stop offset="100%" stopColor="black" opacity="0.1" />
    </linearGradient>
  </defs>
</svg>
